<?xml version="1.0"?>
<svg version="1.1" xmlns="http://www.w3.org/2000/svg" width="400px" height="200px" style=""><path fill="#18253b" d="M104.96,100.6l0,19.16c0,6.96-2.08,10.64-9.12,10.64c-1.28,0-3.04-0.28-3.04-0.28l0.52-4.12l1.92,0c2.4,0,3.52-1.32,3.52-3.84l0-21.56l-3-1.2l0-3.4l12.2-0.2l0,3.6z M116.7404,119.4l0-18.8l-3-1.2l0-3.4l9.2-0.2l3.8,0c8,0,12.72,4.72,12.72,13.72s-5.2,14.48-13.32,14.48l-12.4,0l0-3.4z M122.9404,119.2l3.32,0c3.88,0,6.48-2.28,6.48-9.48c0-6.72-2.28-9.12-6.2-9.12l-3.6,0l0,18.6z M159.6408,95.32c8,0,12.6,5.28,12.6,14.2c0,9-5.4,15-13.4,15s-12.4-5-12.4-14.4c0-9.2,5.08-14.8,13.2-14.8z M159.4408,100.32c-4,0-6.2,2.48-6.2,9.6c0,6.6,1.8,9.6,5.8,9.6s6.4-2.6,6.4-9.8c0-6.6-2-9.4-6-9.4z M186.1012,119.4l0-18.8l-3.8,0l-1,3.8l-3.68,0l0-8.6l23.2,0l0,8.6l-3.72,0l-1-3.8l-3.8,0l0,18.8l3.8,1.2l0,3.4l-13.8,0l0-3.4z M212.8816,119.4l0-18.8l-3.8,0l-1,3.8l-3.68,0l0-8.6l23.2,0l0,8.6l-3.72,0l-1-3.8l-3.8,0l0,18.8l3.8,1.2l0,3.4l-13.8,0l0-3.4z M246.182,95.32c8,0,12.6,5.28,12.6,14.2c0,9-5.4,15-13.4,15s-12.4-5-12.4-14.4c0-9.2,5.08-14.8,13.2-14.8z M245.982,100.32c-4,0-6.2,2.48-6.2,9.6c0,6.6,1.8,9.6,5.8,9.6s6.4-2.6,6.4-9.8c0-6.6-2-9.4-6-9.4z"/><path fill="#" d=""/></svg>
